<?xml version="1.0" encoding="utf-8"?><!DOCTYPE svg PUBLIC "-//W3C//DTD SVG 1.1//EN" "http://www.w3.org/Graphics/SVG/1.1/DTD/svg11.dtd"><svg version="1.1" xmlns="http://www.w3.org/2000/svg" xmlns:xlink="http://www.w3.org/1999/xlink" x="0px" y="0px" viewBox="0 0 95.711 125" enable-background="new 0 0 95.711 100" xml:space="preserve"><g><g><polygon fill="#010101" points="49.579,56.765 46.601,56.765 46.598,86.28 47.805,86.28 48.022,86.28 49.569,86.28 		"/><g><polygon fill="#010101" points="33.869,26.453 26.946,22.497 5.686,43.51 12.114,86.28 38.27,86.28 38.276,29.675 38.195,27.01 
				45.271,18.309 33.869,18.309 			"/><path fill="#010101" d="M51.344,18.309"/><polygon fill="#010101" points="68.881,22.497 61.957,26.421 61.957,18.309 51.344,18.309 58.035,26.884 58.087,86.28 
				83.713,86.28 90.143,43.51 			"/></g></g><g><path fill="#010101" d="M38.27,86.217l-0.001,9.323c0,2.461,2,4.459,4.459,4.459c2.282,0,3.87-1.998,3.87-4.459l0.001-9.323H38.27
			z"/><path fill="#010101" d="M49.569,86.217l-0.003,9.323c0,2.461,1.84,4.459,4.062,4.459c2.46,0,4.456-1.998,4.456-4.459l0.003-9.323
			H49.569z"/></g><path fill="#010101" d="M3.961,46.362c-2.601,0.452-4.343,2.929-3.89,5.532c0.453,2.601,2.925,4.345,5.529,3.89L3.961,46.362z"/><path fill="#010101" d="M91.747,46.362c2.603,0.452,4.347,2.929,3.892,5.532c-0.452,2.601-2.926,4.345-5.527,3.89L91.747,46.362z"/><circle fill="#010101" cx="43.969" cy="32.819" r="1.261"/><path fill="#010101" d="M53.179,32.819c0,0.695-0.567,1.26-1.265,1.26c-0.692,0-1.26-0.564-1.26-1.26
		c0-0.699,0.566-1.263,1.26-1.263C52.611,31.556,53.179,32.122,53.179,32.819z"/><path fill="#010101" d="M59.455,5.937h-4.943V0h-6.675h-6.304v5.937h-4.944v2.959h4.609c-0.067,0.387-0.12,0.78-0.12,1.187
		c0,3.779,3.064,6.842,6.843,6.842s6.842-3.062,6.842-6.842c0-0.407-0.053-0.8-0.119-1.187h4.812L59.455,5.937L59.455,5.937z"/></g><text x="0" y="115" fill="#000000" font-size="5px" font-weight="bold" font-family="'Helvetica Neue', Helvetica, Arial-Unicode, Arial, Sans-serif">Created by Luis Prado</text><text x="0" y="120" fill="#000000" font-size="5px" font-weight="bold" font-family="'Helvetica Neue', Helvetica, Arial-Unicode, Arial, Sans-serif">from the Noun Project</text></svg>